/* XPM */
static char *_00bfbb7d95640588a51594b6b7cfa20FijZYNlWPNo0TjNn[] = {
/* columns rows colors chars-per-pixel */
"50 50 197 2 ",
"   c None",
".  c #04001E",
"X  c #0B001F",
"o  c #37121F",
"O  c #0D0123",
"+  c #0F0528",
"@  c #130425",
"#  c #1A0725",
"$  c #1C0926",
"%  c #110528",
"&  c #150829",
"*  c #1C0B29",
"=  c #240B24",
"-  c #2B0E24",
";  c #220F29",
":  c #310F22",
">  c #2C1025",
",  c #2D142C",
"<  c #27122C",
"1  c #341123",
"2  c #3C1422",
"3  c #341A2F",
"4  c #341D30",
"5  c #391E30",
"6  c #372132",
"7  c #3E2131",
"8  c #3F2B37",
"9  c #4B171F",
"0  c #4D191F",
"q  c #40121E",
"w  c #521A1F",
"e  c #5C1E1D",
"r  c #63211C",
"t  c #6C241D",
"y  c #72271C",
"u  c #762A1D",
"i  c #7A2A1D",
"p  c #431622",
"a  c #461924",
"s  c #4B1B22",
"d  c #481720",
"f  c #531E22",
"g  c #5A1F20",
"h  c #552224",
"j  c #5C2423",
"k  c #572828",
"l  c #432533",
"z  c #442B37",
"x  c #4C2C36",
"c  c #492F38",
"v  c #542D34",
"b  c #512F38",
"n  c #463039",
"m  c #4C323A",
"M  c #55373B",
"N  c #652622",
"B  c #6C2B23",
"V  c #692721",
"C  c #742C21",
"Z  c #7A2F21",
"A  c #7D3122",
"S  c #7C3926",
"D  c #633A3D",
"F  c #6A3F3F",
"G  c #6E3C37",
"H  c #663227",
"J  c #5A3E40",
"K  c #6E4241",
"L  c #684844",
"P  c #784B45",
"I  c #6F5148",
"U  c #7A554A",
"Y  c #812E1D",
"T  c #822F17",
"R  c #86311E",
"E  c #8A331E",
"W  c #8B3516",
"Q  c #93371E",
"!  c #963B1E",
"~  c #9A3C1F",
"^  c #A03F1E",
"/  c #843421",
"(  c #8E3B23",
")  c #873926",
"_  c #933A21",
"`  c #9B3E21",
"'  c #A13F20",
"]  c #A1411C",
"[  c #AA4A18",
"{  c #B04D16",
"}  c #9D4222",
"|  c #964627",
" . c #9F542A",
".. c #8C4B39",
"X. c #9A4E33",
"o. c #9E5335",
"O. c #A34422",
"+. c #A94622",
"@. c #AD4A23",
"#. c #A34B29",
"$. c #B24D23",
"%. c #A4522B",
"&. c #AA5227",
"*. c #B45325",
"=. c #BB5425",
"-. c #BD5A27",
";. c #BC5D28",
":. c #B55B24",
">. c #A24E31",
",. c #A75430",
"<. c #BF6529",
"1. c #C15B27",
"2. c #C25E28",
"3. c #C56329",
"4. c #C9662A",
"5. c #C96529",
"6. c #CA692A",
"7. c #CC6B2B",
"8. c #C76624",
"9. c #D16E2B",
"0. c #CE712C",
"q. c #D2752F",
"w. c #D3742C",
"e. c #D67A2E",
"r. c #DB7C2D",
"t. c #D67C30",
"y. c #D87C31",
"u. c #8C5B4C",
"i. c #86584B",
"p. c #965E4D",
"a. c #8F6A53",
"s. c #896A55",
"d. c #936B54",
"f. c #976350",
"g. c #95755A",
"h. c #987D5E",
"j. c #B26743",
"k. c #BF784E",
"l. c #A76E52",
"z. c #A8795B",
"x. c #B47A5B",
"c. c #BB7D5C",
"v. c #B77B58",
"b. c #C37D55",
"n. c #DE812E",
"m. c #DB8333",
"M. c #DE8835",
"N. c #E0842E",
"B. c #E4892F",
"V. c #E18731",
"C. c #E48C33",
"Z. c #E38F38",
"A. c #E39137",
"S. c #EA9334",
"D. c #EE9B37",
"F. c #E4933A",
"G. c #EB9C3C",
"H. c #EFA23D",
"J. c #F1A33C",
"K. c #BF815E",
"L. c #AE8964",
"P. c #C28051",
"I. c #ECA544",
"U. c #EEAA46",
"Y. c #F3AA42",
"T. c #F2A743",
"R. c #EFB44D",
"E. c #F3B34B",
"W. c #F4BE53",
"Q. c #F2B750",
"!. c #C58A62",
"~. c #C59769",
"^. c #C79568",
"/. c #D39367",
"(. c #D69C6A",
"). c #DA9B6A",
"_. c #DB9767",
"`. c #DBA16B",
"'. c #CFAE76",
"]. c #DDAE74",
"[. c #DCBB7C",
"{. c #DFB175",
"}. c #E6A56D",
"|. c #E6A86F",
" X c #E2A671",
".X c #EBAB72",
"XX c #E5AA71",
"oX c #EDB173",
"OX c #E4BE7D",
"+X c #EDBA79",
"@X c #EAB679",
"#X c #F1B275",
"$X c #F5BC7B",
"%X c #ECC17E",
"&X c #F1C07D",
"*X c #F7CA83",
"=X c #FBD286",
/* pixels */
"                                                                                                    ",
"                                                                                                    ",
"                                                                                                    ",
"                            @ + @ + + @ @ @ @ @                                                     ",
"                          # # # # # # # # # X $ #                                                   ",
"                        = - : : o o o o : - : : - =                                                 ",
"                      $ o q 0 e r r e w 9 9 9 9 p - @                                               ",
"                    # - p r y T W W T u t t y r w : = @                                             ",
"                  = 1 p g y Q ] { { [ ! E R Y i r p : = =                                           ",
"                - p h N Z _ O.=.8.8.<.:.&.O.~ E y e 9 2 - =                                         ",
"              # : f C ( ` +.=.4.w.n.e.0.3.:.#._ E i r f : $ @                                       ",
"            $ - p N ( +.$.=.1.9.e.n.n.0.6.;.&.O.` Q Y r 2 = @                                       ",
"          = : p g Z ' $.=.2.4.7.9.9.7.8.3.;.;.:.*.+.` B p = +                                       ",
"        $ - p r i _ +.=.2.4.7.4.8.-.1.1.-.2.4.3.3.=.+.) s = @                                       ",
"      @ # : 0 y / ' $.1.7.9.0.6.1.=.=.1.2.4.7.7.6.3.*.( j 2 = $                                     ",
"      @ # : f i ~ +.=.3.9.r.e.7.2.1.3.7.q.q.q.6.4.3.;.} A j p 1 =                                   ",
"      @ # 1 g Y ] $.-.6.w.n.n.w.4.4.q.V.Z.V.q.4.4.3.2.*.} / N p = &                                 ",
"      + # 2 N ( +.*.3.7.r.B.B.r.9.w.m.G.I.F.y.q.7.7.6.2.*.O.Z s = @                                 ",
"      + $ 2 B | *.-.5.q.V.S.D.C.r.m.F.U.E.U.F.m.y.y.w.9.3.:.) k - +                                 ",
"      + $ 2 B O.=.3.6.e.Z.D.D.S.C.Z.G.Q.W.Q.U.F.Z.C.r.r.w.<.X.k = @                                 ",
"      + $ 2 C #.=.3.7.e.Z.G.G.S.B.C.G.R.W.W.E.T.D.S.B.r.r.7. .H 1 $ #                               ",
"      O $ 2 B } =.2.7.q.m.Z.A.V.r.r.Z.I.R.E.E.Y.G.S.r.r.w.8.%.S k p 1                               ",
"      + $ 2 B _ @.-.5.0.y.y.y.w.7.7.y.Z.H.Y.Y.Y.G.y.w.7.3.-.*.| A V d - @                           ",
"      @ $ 1 j E ] *.;.5.7.q.9.2.1.1.7.r.C.D.J.H.F.y.7.2.1.=.$.O._ C s - @                           ",
"      @ # 1 e Y ~ $.1.1.2.5.1.1.1.1.6.w.N.S.D.D.S.y.7.3.2.-.$.+.! y 9 = @ X                         ",
"      @ # - f u Q +.=.1.1.1.1.1.1.3.6.w.r.N.S.S.C.y.0.7.4.2.=.' R r o = @                           ",
"      @ $ - 9 t R ` +.=.1.=.1.1.1.8.6.7.w.r.N.B.V.r.9.7.4.3.*.} E V d > $ *                         ",
"        $ - 2 w V R ' +.+.$.$.$.=.-.<.3.7.w.r.r.r.w.7.6.;.*.&.,.o...G v l 3                         ",
"        $ = - 2 d t R ` ' +.+.@.@.*.=.=.1.4.9.9.w.w.6.:.#.} %.j.P.K.l.u.K v , O                     ",
"            # $ : w t Y E Q ` ` ` } #.$.=.1.3.5.4.4.3.*.! / X.k.).|._.K.f.F 5 $ @                   ",
"            % @ = 2 f r t C Z C Z Z _ O.$.=.=.=.1.3.2.$.! / X.P.}.oX.X_.c.u.M l ,                   ",
"              & = - 1 p p d s a a f C _ +.$.$.$.=.1.1.$.] _ >.k._..X#X.X(.x.u.K v < X . . O         ",
"                  = = = = = - = = 1 h / _ O.` } +.$.*.@.O._ >.j.b./.}..X.X_.c.f.K 5 & + & $ $       ",
"                  & @ @ @ # @ + % = a N Z Z A A / ( ( _ / / ) i.p.x./.}.#X.X_.!.f.L J 8 n n z       ",
"                        @ % % + % $ 1 a f f s f h j j j h h k k D i.z./.}..X.X(.~.L.g.g.g.d.I m ; X ",
"                                    ; - - - - - - : , , - - - = , x i.x./. X.X$XOXOX[.[.].^.d.M ; O ",
"                                      @ @ @ # @ & @ @ # @ & @ @ # 3 D u.x.).+X*X=X=X*X*X].^.a.b ; O ",
"                                        @ + % % % % + @ % % + + @ < l D u.L.OX=X*X$X'.~.L.s.I c = O ",
"                                                                & ; ; 3 J h.[.=X*X XP.a.F c 3       ",
"                                                                  & % # z s.'.*X$X).c.P 8 $ O       ",
"                                                                    O @ 6 U ~.@X$X.X^.i.l @ O       ",
"                                                                    O @ 6 L x.).#X#X(.d.c * O       ",
"                                                                    + # 4 F p.c./.`.~.a.m * O       ",
"                                                                      * , x K P u.d.a.I c *         ",
"                                                                        < 4 7 l x m m z 4           ",
"                                                                          $ * $ * $ * *             ",
"                                                                            @ O X X O               ",
"                                                                                                    ",
"                                                                                                    ",
"                                                                                                    "
};
