/* XPM */
static char *_43014ff54244b5dfc1e2ca6bbe9575aCscp51EmQXrZCp9v[] = {
/* columns rows colors chars-per-pixel */
"50 50 243 2 ",
"   c #010000",
".  c #0B0403",
"X  c #0D0800",
"o  c #140709",
"O  c #1A0D09",
"+  c #1D140A",
"@  c #1D0613",
"#  c #1B1816",
"$  c #2F1112",
"%  c #241C1D",
"&  c #391514",
"*  c #332114",
"=  c #3A0C26",
"-  c #351924",
";  c #262523",
":  c #282625",
">  c #36282C",
",  c #373535",
"<  c #441E0F",
"1  c #441D12",
"2  c #462D00",
"3  c #4A2E01",
"4  c #50300C",
"5  c #6E3418",
"6  c #46152D",
"7  c #4E1332",
"8  c #5D1D38",
"9  c #791E3F",
"0  c #55322F",
"q  c #482636",
"w  c #4B3A34",
"e  c #6D352E",
"r  c #7A3A28",
"t  c #672638",
"y  c #794706",
"u  c #75432C",
"i  c #553D46",
"p  c #692346",
"a  c #78274B",
"s  c #70384A",
"d  c #7B2755",
"f  c #7E2A52",
"g  c #55494B",
"h  c #5D5854",
"j  c #6A5650",
"k  c #63615B",
"l  c #7A4D62",
"z  c #6D6864",
"x  c #716D69",
"c  c #7A716D",
"v  c #89343B",
"b  c #935904",
"n  c #9E6301",
"m  c #A26601",
"M  c #A86814",
"N  c #8B4732",
"B  c #994737",
"V  c #9C453C",
"C  c #9E493C",
"Z  c #A54A2F",
"A  c #A54C32",
"S  c #A94D36",
"D  c #A34D3B",
"F  c #AB553B",
"G  c #A8543C",
"H  c #B25A34",
"J  c #BA6136",
"K  c #B37035",
"L  c #CF7415",
"P  c #D37514",
"I  c #CC722F",
"U  c #842D44",
"Y  c #832E4E",
"T  c #8D3A44",
"R  c #85314D",
"E  c #8A354C",
"W  c #8E384B",
"Q  c #923D45",
"!  c #923B4A",
"~  c #983F48",
"^  c #822D51",
"/  c #862C5E",
"(  c #8A3352",
")  c #8A3359",
"_  c #92395C",
"`  c #8C3F60",
"'  c #913461",
"]  c #9A3769",
"[  c #A53B6D",
"{  c #964143",
"}  c #9B4443",
"|  c #9A424A",
" . c #8E544B",
".. c #A24A43",
"X. c #A95744",
"o. c #B05D44",
"O. c #AE5255",
"+. c #996553",
"@. c #A8694E",
"#. c #B6654A",
"$. c #B66A53",
"%. c #B96C55",
"&. c #BE7357",
"*. c #BB745D",
"=. c #8F4C68",
"-. c #944869",
";. c #9D5266",
":. c #AA446C",
">. c #A7596A",
",. c #B54779",
"<. c #B75778",
"1. c #867E7B",
"2. c #A27D68",
"3. c #BC7863",
"4. c #B26A72",
"5. c #CA7653",
"6. c #C65575",
"7. c #C67D65",
"8. c #D96778",
"9. c #B7833C",
"0. c #D68707",
"q. c #E78E09",
"w. c #EA940A",
"e. c #E58719",
"r. c #F29711",
"t. c #FEA818",
"y. c #FFB11E",
"u. c #EF982B",
"i. c #FFAF2F",
"p. c #88817D",
"a. c #B18573",
"s. c #EA9553",
"d. c #FEBA4A",
"f. c #F2AB57",
"g. c #FDB853",
"h. c #CA8266",
"j. c #C88A78",
"k. c #CE9170",
"l. c #D79676",
"z. c #F5B175",
"x. c #FFC042",
"c. c #FFC557",
"v. c #FFC976",
"b. c #B4798D",
"n. c #CB5985",
"m. c #D55A8B",
"M. c #DF5F92",
"N. c #D27189",
"B. c #DF6392",
"V. c #E76A96",
"C. c #E67897",
"Z. c #FB75A3",
"A. c #FD7BA5",
"S. c #FF7DAA",
"D. c #928986",
"F. c #B8869C",
"G. c #AC9790",
"H. c #B792A1",
"J. c #B5ABA5",
"K. c #BDB3AC",
"L. c #C88784",
"P. c #CE9786",
"I. c #D79786",
"U. c #D19B89",
"Y. c #D09292",
"T. c #F18C95",
"R. c #D7A28B",
"E. c #C5A093",
"W. c #D5A593",
"Q. c #D9A998",
"!. c #E8AA8A",
"~. c #E9AD93",
"^. c #EBBA9C",
"/. c #F3B998",
"(. c #C597A5",
"). c #FF82A6",
"_. c #FE8BA4",
"`. c #FF82AB",
"'. c #FF8AAB",
"]. c #FC98A7",
"[. c #FE9CA6",
"{. c #FF95A9",
"}. c #FC8DB3",
"|. c #FF97B7",
" X c #DAB3AD",
".X c #C0B6B0",
"XX c #C7BCB4",
"oX c #FEA7A8",
"OX c #E3B9A9",
"+X c #E6B8AE",
"@X c #F9BAA5",
"#X c #FEBBA6",
"$X c #FFB3A9",
"%X c #FFA7B7",
"&X c #FEB9B7",
"*X c #FFC786",
"=X c #FBC599",
"-X c #FFD593",
";X c #D0C3BB",
":X c #FFC2AA",
">X c #FAC6A9",
",X c #FAD4A7",
"<X c #E9C5B8",
"1X c #EACABD",
"2X c #FDC9B6",
"3X c #FFD4B4",
"4X c #FFDAB6",
"5X c #FDD5BB",
"6X c #FFDABC",
"7X c #FFE3AB",
"8X c #DDBDC3",
"9X c #FFB1C6",
"0X c #FEB9C7",
"qX c #DCC7C7",
"wX c #D6CAC2",
"eX c #DDD1C9",
"rX c #E7CBC8",
"tX c #FCC7C9",
"yX c #EBD2C7",
"uX c #FCD4C3",
"iX c #FEDCC3",
"pX c #F5D8CA",
"aX c #FFC8D3",
"sX c #EBD9D3",
"dX c #F4DDD2",
"fX c #FDDBD6",
"gX c #FFE3C4",
"hX c #FFE3CD",
"jX c #FEE5D3",
"kX c #FFEAD4",
"lX c #F6E7DD",
"zX c #F6E7DF",
"xX c #FAE6DC",
"cX c #F7E9DB",
"vX c #FEEADC",
"bX c #FFDFE0",
"nX c #FDE7E3",
"mX c #FDECE3",
"MX c #FFF0E7",
"NX c #FFF3EB",
"BX c #FFF8EF",
"VX c #FFFBF2",
"CX c #FFF9F5",
/* pixels */
"MXMXMXMXMXMXMXMXMXMXMXMXMXNXBXBXVXVXmX+Xj.X.5 $ o % z K.VXCXCXCXVXVXNXmXNXNXNXmXNXMXMXMXMXMXMXMXMXMX",
"MXMXMXMXMXMXMXMXMXMXMXMXMXmXlXcXMXmXjXOXj.$.v < + : k J.sXmXmXlXlXmXmXNXNXmXmXNXMXMXMXMXMXMXMXMXNXMX",
"MXMXMXMXMXMXMXMXMXBXBXMXcXyX1X<X<X<X XQ.P.3.+.u 1 > h b.J.J.J.J.K.sXnXNXNXNXNXNXNXmXMXMXMXMXMXMXMXMX",
"MXMXMXMXMXMXMXBXBXBXBXMXdXOXU.j.a.j.j.R.Q. XG.=.p q i g h h h k 1.K.sXBXVXVXVXNXNXNXMXMXMXMXMXMXMXMX",
"MXMXMXMXMXmXMXmXMXMXMXcXrXR.3.#.H o.*.j.<XyX Xb.=.p = - # # o ; g D.qXnXNXmXlXnXmXMXmXNXmXNXmXNXMXMX",
"NXMXBXMXBXmXdXyX1X1X<X<XOXI.a.3.%.*.7.R.<XpXrXF.-.p 7 = @ .   @ , z G.K.K.K.K.wXsXmXBXBXNXNXNXNXMXMX",
"BXBXBXCXBXxX1XW.j.j.j.L.j.R.W.Q.Q.Q.Q.<X4XuX+XL.-.d 8 7 6 = = = q i h k k k x G.;XmXVXVXBXVXNXNXMXMX",
"mXmXMXNXmXdXQ.j.%.o.o.$.h.Q.1XjXxXdXjXpX6X>XQ.4.=.d d p p p d p 8 q ; # # # > z J.sXNXNXmXmXmXmXMXMX",
"yXyXyX1XrX+XW.j.*.$.$.3.k.OXpXvXVXNXNXjXuX@XI.4.` d f Y R ( ( R t 6 $ o . o % g p.J.;X;XXX;XeXzXmXNX",
"P.U.P.I.P.P.U.R.W.W.W.W.Q.<XiXjXvXNXmXfX0XoXC.<._ f Y ! ~ ....~ v t 6 = = = - q g z z x x D.J.eXmXBX",
"$.$.#.#.$.3.U.+XyXdXdXpXuX5X5X5XhXvXnXaX9X).B.,._ Y U { D D D D V s a p p p p 8 > > % # ; g D.XXlXVX",
"A G F o.$.7.W.8XfXnXmXxXfXuX:X:X5XhXfXaX%XA.M.,.' ^ T C S S D D } { R Y ^ / a 8 = @       % c K.nXVX",
"Z S o.*.j.W.+X9X0XaXfXgXuX&XoXoX&X5XuX0X|.`.B.,.' R T C S D C { Q { | ~ | | { 9 8 - @ .   % x K.zXVX",
"Z F *.U.+XyX0X|.|.%X&X:X:XoX{.{.oX&X2X$X{.A.M.,.' R T C ....Q E E { } D G D C T 9 t 6 @ o : x K.zXVX",
"Z F 3.Q.pXbX0X|.A._.oX#X$X{.).).].$X#X$X{.A.B.,.' Y T C D } W ^ R { D G G A D | ! R 8 = o : x XXzXVX",
"Z F 7.Q.dXnX0X|.A.A._.[.{.).A.A.[.#X#X$X].Z.B.,.' Y T C D } E ^ R { D F D } { | | Q t & o : x K.zXVX",
"A o.3.Q.pXxXaX|.S.Z.S.S.).Z.A.).[.#X#X$X{.A.B.,.' Y T C D } W R R { D D } Q E ! | V e 1 O : x K.nXVX",
"A F *.Q.yXfX0X|.S.S.S.S.`.S.S.).[.#X:X$X].A.B.,.' Y T C D } W f R Q } D Q R ^ ! ..D r 1 O : x K.lXCX",
"A F *.R.2XtX&X}.S.S.|.9X|.}.S.`.[.#X:X$X].A.B.,.' ( T C D V T f ^ E Q Q E ^ f W V A v 1 O : x .XnXVX",
"A F %.l.>X2X%X'.S.|.0XaX0X|.`.).[.#X:X$X|.S.B.,.' Y T C D } W R f f R Y ^ f ^ W } Z r < O : x .XnXVX",
"A F 5.l./.#XoX_.`.9X0XfXfX9X`.`.[.$X#XoX].V.m.,._ f T V C } W f f f ^ ^ ^ f ^ W } F 5 2 O ; x K.zXVX",
"A F %.l./.#XoX).`.|.tXfXtX%X'.S.'.[.$XT.C.m.,.] / f R T { T R f ^ Y E E ^ ^ R W V D v < O : x .XzXVX",
"Z F *.k./.#XoX_.`.{.&X2X2X%X`.S.`.'._.C.n.[ ' / d d f R R R f f R ! { Q W Y ^ W } D u < O : x .XzXVX",
"Z G 5.l./.&XoX'.).'.$X#X@X].A.Z.Z.Z.V.m.>._ ) R R R Y ^ ) ) f f R { D D Q R ^ ( } D r < O : x .XzXVX",
"Z F *.R.,X5X%X}.`.'.].oX[.T.N.m.n.m.6.6.O.D A A A G O.[ [ ] / ^ R V C D V R ^ ( | v e & o ; x ;XzXVX",
"A F *.R.5XfX0X|.S.S.'._.T.n.,.] [ [ [ O.I L P 0.P I I 8.8.,.] / a B C D V R ^ ^ ( Y 8 - o ; x K.zXVX",
"A F *.W.rXaX0X}.Z.Z.Z.Z.B.<.] ) / / | o.I e.t.r.t.u.s.C.V.n.[ ' W | G ..{ ( ^ ^ ( f 8 $ o : x K.zXVX",
"Z G @.a.G.J.H.N.m.m.M.m.n.<.>.;.;.;.>.*.s.g.x.x.d.g.z.T._.T.n.:.O.6.O.#.| ) f ^ ( R p $ o ; x K.zXCX",
"A D X.u j h l -.[ [ [ :.,.b.F.L.L.L.P.!./.-X-X-X-X-X=X#XoX~.I.Y.L.N.8.6.:._ f ^ ! | e & X # z K.zXCX",
"H G N 0 * ; q a ) / ' ' >.7.!.@X>X^.OX2XiXfXhXkXkXhXuX2X:X>X@X#XoX]._.V.6.] ( T { B r 1 + , x K.zXVX",
"h.3. .e * * q E -.;.-.;.4.Y.>X5X6X4X4XhXnXMXNXNXNXmXjXiX6X4X5X5X2X%X{.T.N.<.;.| N N e 0 , k D.;XmXVX",
"OXQ.G.+.u e N 4.j.L.L.L.W.+XuXhXkXhXjXvXMXNXNXCXNXMXmXjXhXhXhXhXuX2XoXoX].Y.G.>.e 4 0 j p.G.XXsXmXBX",
"lXsXOXa.X.X.3.I.^././.OX>XuXjXmXmXmXmXmXmXMXMXMXMXMXmXmXmXmXmXmXjX5X2X:X>X@X!.2.0 * , 1.J.sXcXcXMXMX",
"VXNX1XU.#.5.7.!.>X3X3X4XiXjXmXMXNXNXNXMXMXNXMXMXMXMXMXNXNXNXNXMXvXfX5X3X3X3X=Xp.w # , p.1XNXBXBXMXMX",
"VXmXyXU.%.#.h./.>X6XgXhXkXMXNXBXNXCXCXNXBXMXMXNXMXMXNXBXBXBXBXBXMXvXhXgX6X4X/.p.w # , p.eXBXVXBXMXMX",
"VXvX1XP.$.I h.!.>X6XhXvXvXMXMXMXMXMXMXnXMXMXMXMXMXMXMXMXMXMXMXMXMXmXvXvXgX4X^.9.w + , p.;XBXBXMXMXMX",
"VXmX<XP.$.#.h.!.>XiXjXmXmXdXsXrXrXrXrXsXjXvXvXMXMXmXxXpXyXyXyXpXdXxXmXmXkX4X^.p.w # , 1.wXNXBXNXMXMX",
"VXmX1XP.$.#.h.!.2XiXvXmXsX8X(.F.F.F.H. X+XuXjXmXMXnXyXOXW.R.U.W.OXyXlXmXvXiX~.a.w + , 1.wXNXBXNXMXMX",
"NXnX<XP.$.#.h.l.>XgXvXmXeX(.b.-.-.-.;.b.Q.<XgXvXmXdXOXj.*.#.%.*.j. XdXmXkXiX^.2.w # , 1.;XMXBXNXMXMX",
"VXmX1XP.$.#.h.z.=X4XvXnX8Xb.-.d a a _ 4.I.@X4X6XgX<XR.*.X.v Z S 3.W.yXjXgX,X!.a.0 + , p.eXMXBXNXMXMX",
"BXmX1XP.5.J I s.z.-X6XcX;Xb.-.a U v ! O.I.#X,X-X*Xv.h.O.T v 9 { >.Y.1XiX,Xv.f.K 4 # , p.wXNXBXNXMXMX",
"BXmX1XP.%.J I r.i.v.7XkXrXF.-.f U v ..7.!./.*Xv.d.s.I ..R a f f >.L.OX,X*Xd.u.M 3 + , p.wXBXBXNXMXMX",
"BXmX1XY.%.H P P t.c.7XkX8XF.-.f v v o.7.!./.*Xg.y.q.L D { R E | >.k.!.v.c.i.r.m 3 + w p.;XMXBXNXMXMX",
"BXnX1XI.%.J P r.t.c.-XkXqXF.-.Y v D F 7.!./.*Xd.t.r.q.I J H F J 5.s.f.c.x.y.w.m 3 + , p.wXMXBXNXMXMX",
"BXnX1XY.%.J P q.t.c.7XkXqXF.-.d v D o.7.!.>Xv.d.y.r.r.w.e.e.e.e.e.u.y.i.t.t.w.m 3 + , 1.wXMXBXBXMXMX",
"BXmX1XP.@.M M P w.d.-X1X8Xb.-./ T v X.5.l.~.z.d.u.q.q.w.q.w.q.q.q.w.w.w.r.w.0.n 3 + w p.wXBXBXMXMXMX",
"VXmX;Xa.u u y b M 9.k.W.E.4.` d U T } 4.7.l.k.9.M n m m n m m n m n n n n n b y 4 4 j G.eXMXBXMXMXMX",
"VXlXXX1.w * + * 2 u +.*.4.;.) d f Y ! | $.%.@.N 4 2 2 3 3 3 3 3 3 3 2 2 2 2 3 4 5 N +.E.yXMXBXBXMXMX",
"VXlXXXc >       + 1 u D X.| ^ f d f Y ! ..G N 4 $ X   X X X X X X X X X   X O & 5 B 3.Q.sXMXBXMXMXMX",
"VXnXK.x ;         $ 5 N D ! Y d d d f E ~ B r 1 o                             $ 5 G h.~.dXMXBXMXMXMX"
};
