/* XPM */
static char *a271af6580814aa5ee76434338b17965IESCpkCIfBHHAP8K[] = {
/* columns rows colors chars-per-pixel */
"50 50 153 2 ",
"   c None",
".  c #2E1E1E",
"X  c #311F1E",
"o  c #34201F",
"O  c #371C21",
"+  c #381F21",
"@  c #362120",
"#  c #3A2322",
"$  c #362920",
"%  c #3A2B22",
"&  c #373121",
"*  c #3A3322",
"=  c #432525",
"-  c #492627",
";  c #4B2728",
":  c #4E2829",
">  c #57272A",
",  c #5C252A",
"<  c #542A2B",
"1  c #5C2C2D",
"2  c #483526",
"3  c #5F3438",
"4  c #612E2F",
"5  c #642F30",
"6  c #692F31",
"7  c #673031",
"8  c #6D3233",
"9  c #6B3B38",
"0  c #733435",
"q  c #793637",
"w  c #7A3738",
"e  c #7E3839",
"r  c #713A35",
"t  c #3D4423",
"y  c #3E4A23",
"u  c #3D5923",
"i  c #3F7120",
"p  c #514125",
"a  c #405724",
"s  c #415B24",
"d  c #71443E",
"f  c #426422",
"g  c #426B25",
"h  c #427124",
"j  c #467B26",
"k  c #5F4F4F",
"l  c #624F4F",
"z  c #764B4C",
"x  c #775348",
"c  c #7C5C4E",
"v  c #655757",
"b  c #6F5458",
"n  c #6C5455",
"m  c #795050",
"M  c #843739",
"N  c #843A3B",
"B  c #8D3D3E",
"V  c #8B373A",
"C  c #913D3F",
"Z  c #923E40",
"A  c #9D3F41",
"S  c #A23F42",
"D  c #854A4B",
"F  c #954142",
"G  c #9C4244",
"H  c #964648",
"J  c #9B585A",
"K  c #A44346",
"L  c #A54648",
"P  c #AB4649",
"I  c #A44A4C",
"U  c #AC494A",
"Y  c #B14547",
"T  c #B34749",
"R  c #B44A4C",
"E  c #BC4D4F",
"W  c #A6524E",
"Q  c #B6504F",
"!  c #BF4E50",
"~  c #AB5852",
"^  c #AA5B5D",
"/  c #BB5151",
"(  c #B35F58",
")  c #806352",
"_  c #AF645A",
"`  c #B56159",
"'  c #B46A5E",
"]  c #AE5E60",
"[  c #886F73",
"{  c #B46769",
"}  c #BE7C7D",
"|  c #B17C7D",
" . c #C14E51",
".. c #C25253",
"X. c #C35B58",
"o. c #C56960",
"O. c #CB6B62",
"+. c #D06D64",
"@. c #C47667",
"#. c #CA7166",
"$. c #C07868",
"%. c #CC7F6E",
"&. c #488526",
"*. c #498B26",
"=. c #4A9227",
"-. c #CA806E",
";. c #C28770",
":. c #D08170",
">. c #C8977A",
",. c #D1977C",
"<. c #DD977E",
"1. c #D19A7E",
"2. c #AD7F81",
"3. c #BF7F80",
"4. c #B48081",
"5. c #BD9A9B",
"6. c #C28182",
"7. c #C78789",
"8. c #C48A8B",
"9. c #CB8B8C",
"0. c #D39F81",
"q. c #E39F84",
"w. c #CFA483",
"e. c #D5A987",
"r. c #D7B18C",
"t. c #DBB48E",
"y. c #ECAF8E",
"u. c #E5AB8B",
"i. c #EDB08F",
"p. c #E3BC94",
"a. c #F2B492",
"s. c #C2A5A6",
"d. c #D4A9AA",
"f. c #C8BDBD",
"g. c #C1B5B5",
"h. c #E3C096",
"j. c #E6C599",
"k. c #E7C89B",
"l. c #EACB9E",
"z. c #F0C299",
"x. c #F9CBA0",
"c. c #FAD3A5",
"v. c #FFD7A8",
"b. c #FFDAAA",
"n. c #FFE1AF",
"m. c #C6C3C2",
"M. c #CDCBCB",
"N. c #E7CDCE",
"B. c #EEDBDC",
"V. c #E5D6D6",
"C. c #F0DFDF",
"Z. c #ECE1E2",
"A. c #F2E2E3",
/* pixels */
"                                                                                                    ",
"                                                                                                    ",
"                                                                                                    ",
"                                                                                                    ",
"                                                                                                    ",
"                                                                                                    ",
"                                                                                                    ",
"                                                                                                    ",
"                                  # o X X X X X X + X X . X X X @ . . O . . . o X                   ",
"                                  o # = = = = = = = = = = = = = = = = = = - = = = =                 ",
"                              O + # : 7 0 8 0 8 8 8 0 w e e e e M e e e e e e N e 8 =               ",
"                              # o # 1 B G G G G G G G U R E R R R R R R R R R R R e ; X             ",
"                            a a t % 4 Z K K S K K S K P R E  ... .E R U R U R ! ! N ; o             ",
"                          $ s &.f * , Z L L I G G I L K L R E E R P K K K K K R T e - X             ",
"                        O $ s =.h * , Z { 7.| D D 4.7.^ K R R C N F P U P U U F e 4 # @             ",
"                        O # s &.g % , Z 7.N.g.l n f.N.} K T P 0 1 N R ! R ! R N < # # @             ",
"                        O # t s y # , F 9.A.m.k v M.C.6.K T T N q F E / E  .E G 8 < # @             ",
"                          # % % % # 1 B 7.Z.m.v v M.B.3.K Y E R T R E E E E E E P q = X             ",
"                          # + + o a p r 2.Z.m.k v M.A.3.K Y ! !  .E E E E E E  .E N ; .             ",
"                            O # a j f 2 [ V.m.k v m.B.3.K T E E  .E E E E  .E ..E M ; X             ",
"                              # a *.i * b s.5.z m 5.d.{ K T E E E /  . . . . ...E N = X             ",
"                              $ a *.h * 7 J ^ F H ^ { I K T E E E E E E E E E  .E N ; .             ",
"                              $ a g a * < V K K K A A G K U R ! Q L F C Z F F F F 8 = +             ",
"                              @ # * & o < B K K K G G G G K P E T M > < < < < < : = $ +             ",
"                              # X X = : 8 C K K K K K K K K K K F 7 @ . @ @ o o X # #               ",
"                              # + o < q B A K P T T T T T E K w 1 ;                                 ",
"                              # o = 4 Z I ~ ' o.O.O.O.O.O.+.( r #                                   ",
"                                X # 1 Z ` ;.1.u.y.i.y.y.i.a.,.x #                                   ",
"                                X # 1 C ' w.k.c.b.b.v.b.b.n.p.c #                                   ",
"                          # @ o X X , C ' w.k.c.b.b.b.b.b.n.h.) #                                   ",
"                          # = ; ; : 6 Z ' 1.j.c.v.b.v.v.b.n.p.) #                                   ",
"                        X # 1 N C B C G { w.k.c.b.b.v.b.b.n.h.) #                                   ",
"                        X # 8 K R R T K _ >.t.z.x.x.v.c.x.c.r.c #                                   ",
"                        @ # : 8 Z U U K W ' $.%.<.p.l.l.p.u.@.d #                                   ",
"                          @ @ # 4 B G G K L U E o.,.r.r.0.#.U 5 #                                   ",
"                            + # = 4 e F K P P E X.#.%.-.#.X.K 5 #                                   ",
"                              # @ # 7 F U R E R R R Q ! / / L 8 #                                   ",
"                                O @ 1 B T ! U N q q M A T  .P 7 #                                   ",
"                                  # 1 Z U R F 1 # # < N L R L 7 #                                   ",
"                                  # 4 F G N 8 ; . . ; N G Z q 1                                     ",
"                                  # 1 B M < =     @ : e B 4 =                                       ",
"                                  # < 8 7 =       + = 5 8 <                                         ",
"                                  # # = =         # # = =                                           ",
"                                  # # X             # @ X                                           ",
"                                                                                                    ",
"                                                                                                    ",
"                                                                                                    ",
"                                                                                                    ",
"                                                                                                    ",
"                                                                                                    "
};
