/* XPM */
static char *d3b06eea939d4948ea4804eef578206cysKhVRUuDHmQxht5[] = {
/* columns rows colors chars-per-pixel */
"50 50 166 2 ",
"   c #6F1443",
".  c #721947",
"X  c #741C49",
"o  c #77204C",
"O  c #79234E",
"+  c #7B2651",
"@  c #7D2A53",
"#  c #A04226",
"$  c #A3462B",
"%  c #A4492E",
"&  c #A64D32",
"*  c #A84F35",
"=  c #A85137",
"-  c #AA543A",
";  c #AC583F",
":  c #83335A",
">  c #87385E",
",  c #88395F",
"<  c #893C61",
"1  c #AE5C43",
"2  c #B05F46",
"3  c #B16047",
"4  c #B2634A",
"5  c #B66B54",
"6  c #B86D56",
"7  c #B96F58",
"8  c #BB735C",
"9  c #8C4064",
"0  c #914769",
"q  c #934B6C",
"w  c #965070",
"e  c #995473",
"r  c #9C5977",
"t  c #9E5B79",
"y  c #A05F7B",
"u  c #BD7660",
"i  c #BE7963",
"p  c #A2627E",
"a  c #C07C67",
"s  c #C17E68",
"d  c #FF9D00",
"f  c #FFA006",
"g  c #FFA20B",
"h  c #FFA513",
"j  c #FFA719",
"k  c #FFA91D",
"l  c #FFAA22",
"z  c #FFAE2D",
"x  c #FFB135",
"c  c #FFB43D",
"v  c #FFB643",
"b  c #FFB84A",
"n  c #FFBD56",
"m  c #FFBE5B",
"M  c #C3826D",
"N  c #C48572",
"B  c #C78975",
"V  c #C88B77",
"C  c #C98E7A",
"Z  c #CC927F",
"A  c #FFC157",
"S  c #FFC25D",
"D  c #FFC264",
"F  c #FFC46B",
"G  c #FFC86C",
"H  c #FFC773",
"J  c #FFC875",
"K  c #FFCA7C",
"L  c #A46785",
"P  c #A66987",
"I  c #AA6E86",
"U  c #AB7087",
"Y  c #AE748B",
"T  c #B27A8F",
"R  c #B37D93",
"E  c #B68194",
"W  c #B88396",
"Q  c #BA8698",
"!  c #BD8B9C",
"~  c #CE9583",
"^  c #CF9885",
"/  c #D09A87",
"(  c #D29D8B",
")  c #C0909F",
"_  c #D4A08F",
"`  c #D6A493",
"'  c #D8A897",
"]  c #DAAB9B",
"[  c #C394A2",
"{  c #C698A6",
"}  c #C99DA9",
"|  c #CDA3AD",
" . c #DEB3A4",
".. c #CEA6B1",
"X. c #D2ABB4",
"o. c #D2ADBB",
"O. c #D5B1BB",
"+. c #D9B5BC",
"@. c #DBB9BE",
"#. c #E0B6A7",
"$. c #E1BBAC",
"%. c #E4BEB0",
"&. c #FFCC82",
"*. c #FFCF89",
"=. c #FFD08D",
"-. c #FFD394",
";. c #FFD69B",
":. c #FFC7A3",
">. c #FFC9A6",
",. c #FFCCAC",
"<. c #FFD7A0",
"1. c #FFDBA6",
"2. c #FFDCAC",
"3. c #E6C2B4",
"4. c #E8C5B7",
"5. c #E8C6B9",
"6. c #EACABC",
"7. c #FFCFB0",
"8. c #FFD1B4",
"9. c #FFDEB4",
"0. c #FFD5BA",
"q. c #FFDABD",
"w. c #FFE1B1",
"e. c #FFE1BE",
"r. c #D8B6C1",
"t. c #DDBDC1",
"y. c #E2C3C5",
"u. c #ECCDC1",
"i. c #E7CBCC",
"p. c #E9CDCD",
"a. c #EFD2C6",
"s. c #ECD1CD",
"d. c #F0D4C7",
"f. c #FFDBC4",
"g. c #F1D5CA",
"h. c #F2D9CE",
"j. c #FFDECA",
"k. c #E7CDD0",
"l. c #ECD3D2",
"z. c #EFD8D5",
"x. c #F4DDD3",
"c. c #F3DDD9",
"v. c #FFE4C4",
"b. c #FFE4CC",
"n. c #FFE8CF",
"m. c #F7E1D6",
"M. c #FFE5D4",
"N. c #FFE9D4",
"B. c #F6E2DC",
"V. c #FAE5DA",
"C. c #FEEADD",
"Z. c #F9E7E0",
"A. c #FEEDE3",
"S. c #FDEEE5",
"D. c #FFEFE5",
"F. c #FFF0E6",
"G. c #FFF0E7",
"H. c #FFF2E9",
"J. c #FFF6EB",
"K. c #FFF2ED",
"L. c #FFF6EC",
"P. c #FFF9EE",
"I. c #FFFAEE",
"U. c #FFF3F0",
"Y. c #FFF4F3",
"T. c #FFF9F1",
/* pixels */
"G.G.G.G.G.G.G.G.G.G.G.G.G.G.H.H.P.P.P.H.S.H.S.H.S.H.S.H.S.H.S.H.S.H.S.H.S.H.G.H.H.Y.Y.J.H.S.H.S.H.S.",
"G.G.G.G.G.G.G.G.G.G.G.G.G.G.D.A.Z.Z.Z.D.H.S.H.S.H.S.H.S.H.S.H.S.H.S.H.S.H.S.G.A.A.C.C.A.G.S.S.H.S.H.",
"G.G.G.G.G.G.G.G.G.G.G.H.H.H.A.z.y.y.k.B.S.H.H.S.S.H.S.H.S.H.S.H.S.H.S.H.S.K.H.A.n.9.2.v.N.D.H.S.H.S.",
"G.G.G.G.G.G.G.G.G.G.G.H.P.P.B.@.) Q | s.S.H.H.H.H.S.H.S.H.S.H.S.H.S.H.S.K.U.U.C.2.K G -.v.D.K.H.S.H.",
"H.S.H.D.G.G.G.G.G.G.G.G.H.A.s.[ t w E t.D.H.L.S.H.S.H.S.S.D.H.D.S.H.S.H.S.H.A.v.K v x D 9.D.K.K.S.H.",
"S.S.H.H.H.H.H.G.G.H.G.Z.z.i...U 9 < Y @.Z.P.L.H.K.H.S.H.H.H.K.H.H.S.K.S.A.n.e.;.n l l n 2.A.U.K.K.K.",
"H.S.H.L.L.L.H.H.G.H.J.z.@.[ I 0 : < Y t.D.P.P.L.L.H.H.S.K.K.K.K.H.H.H.D.n.2.K n z h k m 2.A.Y.Y.U.K.",
"S.H.D.D.D.D.D.D.H.P.G.s.} t < @ @ 9 R t.S.L.H.S.S.D.H.D.D.D.D.D.S.H.K.D.v.*.v k f f l D 2.A.K.H.D.D.",
"K.D.B.l.p.s.B.G.L.P.H.p.! 0 + . o < E y.Z.Z.l.p.l.c.D.C.v.e.v.N.F.H.Y.H.e.J z d d d l D w.C.C.b.e.9.",
"L.A.k.X.! } y.Z.T.T.H.p.! 0 O   X > E y.Z.l...! ..k.V.v.;.K =.9.A.Y.Y.H.v.H z d d d j D e.C.v.-.H D ",
"L.Z.t.W r I | z.H.P.H.i.! q + o o 9 E t.c.@.Y t R r.c.9.G c n -.N.G.Y.G.e.K z f d d l F 9.n.2.D x l ",
"T.Z.+.I 9 q E @.z.A.A.i.! q @ @ 9 r ! O.@.! e < L o.x.2.A k z F 1.n.G.G.e.H z g g l v H ;.2.K c g d ",
"P.B.+.I > > r E ..k.B.i.! 0 : q Y ! [ ! W t < : L X.m.1.A j j c F -.e.N.q.H z h z n J &.K G b l f d ",
"T.Z.@.Y < + : q Y O.z.i.! q 9 Y X.@.| Y q > @ > P O.m.2.S k g g z n ;.n.v.H z k n ;.2.=.n x k g f d ",
"P.Z.@.Y > X X @ e } s.k.} p p [ k.z.| t @ o o > I O.m.2.S k f d g c =.v.v.=.b b K v.n.-.v g d f f f ",
"P.Z.+.Y > .   + w [ l.B.@.{ [ t.B.z.| t @   . @ P o.h.2.S h d d d x &.v.N.2.&.&.2.M.n.-.c f d d f d ",
"L.Z.t.Y < o X @ w { l.Z.B.k.p.B.G.z.| r @ . X : P O.m.2.S j f d f x *.v.A.N.v.v.N.D.N.*.v f d d d g ",
"P.Z.y.Q w : + @ e [ l.H.H.D.S.H.J.z.} t : O : q E r.m.w.G x h f g x &.v.H.L.D.D.K.S.N.*.c h g h l l ",
"L.Z.s.X.E y < @ q ) l.H.T.P.P.T.J.z.{ e : > t E ..k.B.v.;.G v k h z K v.K.U.U.U.Y.K.b.*.x h k v D D ",
"H.H.B.z.t.[ t < w ! l.H.P.H.H.L.G.z.[ e > e ! @.l.Z.A.C.b.w.K c j z K v.H.U.K.K.K.G.b.&.x k c K 2.9.",
"D.H.H.H.B.t.R e y { l.H.L.H.H.L.J.x.| p w Y o.B.H.H.G.H.J.C.2.D x v *.b.H.U.K.S.K.K.n.=.b x S 1.C.K.",
"H.S.H.P.H.l.| W ! +.c.H.H.H.H.H.H.B.t.) R | p.H.P.H.H.K.U.H.b.-.G J <.N.S.K.S.K.K.H.N.2.K F =.v.D.Y.",
"H.S.H.H.H.B.k.t.t.l.Z.D.H.S.S.H.H.Z.z.y.t.i.B.H.H.H.G.H.H.G.C.e.2.9.b.C.H.H.H.S.H.S.A.b.9.2.v.N.H.Y.",
"S.H.S.H.H.D.A.D.Z.D.H.S.H.S.H.S.D.S.D.Z.Z.D.D.H.H.H.G.G.G.G.G.A.A.C.A.D.H.S.S.H.S.H.G.A.C.C.G.G.D.D.",
"H.S.H.S.H.H.H.H.L.H.H.S.H.S.H.H.H.K.L.L.L.L.H.D.G.G.G.G.G.G.H.K.K.K.K.S.H.S.H.S.S.H.H.K.K.K.U.S.D.H.",
"S.H.S.H.S.H.H.H.H.H.H.D.S.H.H.S.L.L.L.H.H.H.H.D.G.G.G.G.G.G.D.H.K.K.S.K.S.H.S.H.H.S.H.K.K.K.K.H.H.S.",
"H.S.H.S.H.S.H.H.S.H.S.H.H.S.H.A.A.Z.D.D.H.D.D.H.G.G.G.G.H.S.H.D.S.H.S.H.H.S.H.S.S.S.D.D.D.S.D.H.S.H.",
"S.H.S.H.S.H.S.H.H.S.H.H.K.H.A.x.u.5.a.B.D.H.H.S.G.G.G.G.S.H.S.H.H.S.H.S.S.H.H.D.A.C.M.C.A.H.H.D.H.S.",
"K.A.H.D.H.S.H.S.D.H.D.H.L.P.B.3.` /  .a.A.H.H.H.H.S.H.S.H.S.H.S.S.H.S.H.D.H.D.D.M.f.f.b.C.J.H.H.S.H.",
"D.H.D.D.S.H.S.H.H.D.H.S.H.Z.x.' i 8 ~ 6.A.L.K.S.S.H.S.H.S.H.S.H.H.S.H.S.H.K.D.C.j.0.7.f.B.S.H.D.H.S.",
"H.A.H.H.H.H.H.H.D.H.D.A.m.a. .V 4 4 C 5.A.L.L.H.K.H.H.S.S.K.H.S.S.H.S.H.D.A.B.M.0.7.7.f.M.S.H.H.H.S.",
"S.H.H.K.L.L.H.H.H.H.G.x.5.` N 5 1 4 C 5.S.T.U.L.K.H.S.H.H.S.H.H.H.S.H.S.A.M.f.f.7.>.,.f.M.D.H.K.H.H.",
"H.S.S.S.A.D.D.D.H.L.H.g.] s 4 = = 4 Z 5.A.L.H.D.D.G.G.G.D.D.G.G.G.D.H.H.C.j.0.,.,.>.,.f.M.H.H.S.S.S.",
"H.D.B.x.a.g.B.A.L.T.H.a.( 7 & % & 4 ~ 6.A.Z.h.a.h.B.A.D.C.C.C.A.D.H.K.S.C.f.7.,.:.>.7.f.M.S.D.D.M.M.",
"L.D.s.$.`  .6.A.U.T.H.a.( 5 & # % 3 ~ u.C.a. .`  .a.C.A.M.j.b.M.D.K.K.D.C.f.8.>.:.:.,.f.M.A.C.M.f.f.",
"L.C.5./ i B  .m.H.T.H.g.` 5 * $ * 4 ^ u.x.3.~ u Z 3.B.C.j.0.0.M.A.H.H.H.C.f.8.>.:.>.,.f.M.C.M.f.0.,.",
"T.B.3.V 4 5 / 5.x.A.A.d.( 5 - 1 4 i ( $.5.` 8 4 M $.m.C.q.7.7.f.M.A.S.S.A.f.0.>.,.7.0.f.M.M.j.0.,.:.",
"L.A.%.B 2 2 8 / #.g.B.d.( 5 1 5 C _ ' ` ^ i 1 1 M $.m.C.q.7.,.0.f.b.M.A.C.j.7.,.7.f.f.j.j.f.0.7.,.:.",
"T.A.3.C 2 = 1 5 C $.x.g.` 5 4 B $.5. .C 8 1 = 1 M $.B.C.f.,.,.,.7.0.M.A.M.j.7.7.0.M.M.j.f.,.,.,.>.>.",
"T.B.4.C 2 % % = 8 ] h.g.] M s ` a.h. .i - % % 1 N $.N.C.v.,.:.:.,.0.j.C.A.j.0.0.j.B.A.j.0.,.>.,.>.,.",
"Y.C.3.V 2 $ # * 8 ] h.x.5.] ] 4.m.m. .8 = # $ ; N  .B.M.f.,.:.:.:.7.j.C.A.M.j.j.M.D.D.j.0.,.>.:.>.>.",
"P.V.4.C 2 % $ = 8 ' h.D.B.g.g.x.D.m. .i - $ % ; M 3.m.C.f.,.:.>.,.0.j.C.D.D.C.A.D.D.Z.M.0.>.:.:.,.>.",
"Y.C.6.( 5 1 * - 8 ' h.D.L.H.D.H.H.x. .8 ; * ; 6 ^ 5.B.C.b.,.,.>.,.0.j.C.S.H.H.S.H.K.D.j.0.,.,.,.7.7.",
"H.A.g.$./ s 3 ; 5 ` h.H.T.P.P.T.H.m.` 8 ; 4 i ~  .a.C.D.M.f.0.7.,.7.j.C.H.K.S.H.H.D.C.j.,.,.,.0.f.f.",
"H.D.B.x.5.' s 2 6 ` s.H.U.H.H.T.H.m.] 8 1 8 ` 5.h.C.A.D.S.M.j.0.,.7.j.C.S.K.H.H.H.H.A.j.0.,.0.f.M.M.",
"H.G.H.H.B.5.~ 8 a ] x.H.L.S.H.L.H.x. .M 7 V 3.B.J.H.D.H.S.D.M.f.7.0.j.C.S.H.H.S.D.D.A.b.0.8.f.M.A.H.",
"G.G.H.T.H.x.#.( ` %.m.H.K.H.H.H.H.B.4.] (  .h.S.U.L.H.H.H.H.C.M.j.j.M.A.H.H.H.S.H.D.A.M.j.j.j.A.D.K.",
"G.H.H.H.K.V.g.6.6.h.Z.H.H.D.D.H.H.C.x.6.5.g.B.H.H.H.D.H.H.S.D.C.M.M.C.D.S.K.S.H.S.H.D.C.C.M.V.A.H.K.",
"G.G.G.G.G.D.Z.Z.A.A.D.D.H.D.H.S.H.D.D.Z.C.Z.D.H.H.S.H.S.H.S.S.S.D.S.D.D.H.S.H.S.H.S.H.D.D.D.D.S.H.S.",
"G.G.G.G.G.H.L.T.L.L.H.D.S.H.S.H.S.H.H.U.T.L.H.H.S.D.S.H.S.H.H.H.K.K.H.D.S.H.S.H.S.H.S.H.H.K.S.H.S.H."
};
