/* XPM */
static char *d6a564f0fe6946fb9b30e87e0610729aO2dHvpz5oCqOHMBm[] = {
/* columns rows colors chars-per-pixel */
"50 50 233 2 ",
"   c None",
".  c #020101",
"X  c #0C0506",
"o  c #14060C",
"O  c #1B0D0A",
"+  c #170B08",
"@  c #1B0912",
"#  c #180710",
"$  c #210F0C",
"%  c #21100B",
"&  c #2B150E",
"*  c #280D1B",
"=  c #281215",
"-  c #3A1A16",
";  c #31180A",
":  c #350F23",
">  c #381423",
",  c #421D1A",
"<  c #4D251A",
"1  c #452217",
"2  c #552A1C",
"3  c #6A341E",
"4  c #45172E",
"5  c #4C1933",
"6  c #591C3B",
"7  c #50252A",
"8  c #7E3C2B",
"9  c #743828",
"0  c #642738",
"q  c #752F39",
"w  c #6E332F",
"e  c #5E1D40",
"r  c #701E4A",
"t  c #692546",
"y  c #74244E",
"u  c #7B274D",
"i  c #7A2652",
"p  c #7D2A53",
"a  c #772551",
"s  c #7A384E",
"d  c #813E2A",
"f  c #843F38",
"g  c #83402A",
"h  c #9E483E",
"j  c #984639",
"k  c #924731",
"l  c #A44A2F",
"z  c #A24429",
"x  c #A44E34",
"c  c #A34C3B",
"v  c #A64B3B",
"b  c #A55033",
"n  c #A95235",
"m  c #AB543A",
"M  c #AC583E",
"N  c #A75139",
"B  c #B1563A",
"V  c #B4593A",
"C  c #852F4C",
"Z  c #86314D",
"A  c #8A354C",
"S  c #8B3847",
"D  c #933D44",
"F  c #923C49",
"G  c #812B54",
"H  c #842E58",
"J  c #892C58",
"K  c #833155",
"L  c #88355A",
"P  c #91345E",
"I  c #973D54",
"U  c #8C3761",
"Y  c #933561",
"T  c #973A64",
"R  c #A23D6B",
"E  c #954144",
"W  c #9B4544",
"Q  c #994556",
"!  c #8F425B",
"~  c #A14844",
"^  c #AD5846",
"/  c #BA594D",
"(  c #B35947",
")  c #B85856",
"_  c #AA4F57",
"`  c #B3654D",
"'  c #B7634B",
"]  c #B66B53",
"[  c #BA6D52",
"{  c #BA725B",
"}  c #BA7057",
"|  c #AF6448",
" . c #994668",
".. c #9C536B",
"X. c #9C5976",
"o. c #8D4266",
"O. c #A54569",
"+. c #A8586C",
"@. c #AC4571",
"#. c #BA4C7A",
"$. c #B44976",
"%. c #B85579",
"&. c #B3576E",
"*. c #BD7962",
"=. c #BD7560",
"-. c #A8667B",
";. c #B46976",
":. c #B56972",
">. c #C35D58",
",. c #C27B5E",
"<. c #C0695C",
"1. c #C2527E",
"2. c #C55B7E",
"3. c #C75D64",
"4. c #CD6167",
"5. c #D1636B",
"6. c #D16C6B",
"7. c #C07C66",
"8. c #CA6477",
"9. c #DA6875",
"0. c #C4787E",
"q. c #D1796A",
"w. c #BF8169",
"e. c #C4826B",
"r. c #C88D79",
"t. c #C68874",
"y. c #D09076",
"u. c #A56D84",
"i. c #AD7389",
"p. c #B87184",
"a. c #C85683",
"s. c #D45B8A",
"d. c #D95D8C",
"f. c #C96685",
"g. c #D8638A",
"h. c #DE6291",
"j. c #D76992",
"k. c #D37592",
"l. c #EA6D8C",
"z. c #E46A85",
"x. c #E36495",
"c. c #EB6C95",
"v. c #ED6C9B",
"b. c #E76995",
"n. c #F36C9E",
"m. c #EA7996",
"M. c #F6749A",
"N. c #EA7D8B",
"B. c #FE6FA2",
"V. c #F36FA1",
"C. c #F671A1",
"Z. c #FF75A5",
"A. c #FF7AA6",
"S. c #FF77A9",
"D. c #FF79A9",
"F. c #F379A4",
"G. c #B98493",
"H. c #BE898D",
"J. c #C98888",
"K. c #CD9984",
"L. c #CF9283",
"P. c #D29D8B",
"I. c #D49889",
"U. c #DB9A94",
"Y. c #C78B94",
"T. c #E69788",
"R. c #E38791",
"E. c #D7A38A",
"W. c #D7AB98",
"Q. c #D9AD9A",
"!. c #DAA596",
"~. c #E9A699",
"^. c #EEAE94",
"/. c #C99AA3",
"(. c #DD97A7",
"). c #FF83A5",
"_. c #FD8BA6",
"`. c #FF83AB",
"'. c #FE8BAC",
"]. c #F084A0",
"[. c #FE9BA5",
"{. c #FE94A9",
"}. c #FF94A8",
"|. c #FF8BB2",
" X c #FF86B0",
".X c #FF93B4",
"XX c #FF96B8",
"oX c #FE9CBA",
"OX c #FB9EB6",
"+X c #CCA5AD",
"@X c #DDB3A3",
"#X c #D4B3B7",
"$X c #D6A9AC",
"%X c #E8A6A6",
"&X c #FCA5A7",
"*X c #E9B9A7",
"=X c #FCB8A7",
"-X c #FEA5BC",
";X c #F8A6B4",
":X c #E8B9B2",
">X c #F8B6B8",
",X c #E3ADB7",
"<X c #FCC3AE",
"1X c #EAC8B9",
"2X c #FAC9B7",
"3X c #FCD1BD",
"4X c #FFA5C1",
"5X c #FFABC4",
"6X c #FFABC8",
"7X c #FEBBC9",
"8X c #FFB5C8",
"9X c #FFBFD0",
"0X c #E0B9C1",
"qX c #ECCBC6",
"wX c #FEC3CE",
"eX c #FFC8C8",
"rX c #EBD0C2",
"tX c #F1D6CA",
"yX c #F3DACE",
"uX c #FDDBCB",
"iX c #FDD5C4",
"pX c #FFC1D2",
"aX c #FECCD4",
"sX c #FFCEDA",
"dX c #FCD4D3",
"fX c #FCDBD5",
"gX c #FFD5DB",
"hX c #FEDDDD",
"jX c #F5DEDA",
"kX c #EDD5D1",
"lX c #FBE2DD",
"zX c #FFE3E1",
"xX c #FEE8E2",
/* pixels */
"                                    l l l l x x l l l l l l l l                                     ",
"                                    M M m ^ m m M M M M M M M M                                     ",
"                                  ] { *.*.*.*.*.7.{ 7.*.*.{ *.{ ]                                   ",
"                        l z z z | *.K.!.Q.Q.W.W.W.W.W.W.Q.W.W.I.e.| b l b m                         ",
"                      n n b x N ` r.@XqXyXyXkXyXtXyXtXkXyXyXrX@Xr.' m x x N m                       ",
"                    ` ] ] ] ` ] 7.I.:XkXzXzXhXzXhXhXhXzXzXzXdX:XL.<.( v v c c v                     ",
"                  | *.r.K.K.K.K.P.%X>X7X9X9X9X9XpX9X9XpXpX9X8X;XR.9.>./ ~ F f c v                   ",
"                b ` r.@X1X1XrX1X1X>X;XoXXXXXXXXXXXXXXXXXXXXX.X_.M.l.s.&.O.A S j c n                 ",
"              M ` *.I.:XfXzXxXhXdX7XXX`.Z.Z.D.D.A.D.Z.A.D.Z.A.D.A.Z.b.a.@.P S D h v N               ",
"            } *.t.r.Q.>XaXsXgXsX9X5X|.D.B.B.Z.B.Z.Z.Z.B.Z.Z.Z.Z.S.S.V.d.a.@.O.Q W W h v             ",
"          | e.y.@X:X>X;X4X4X4X4XoX.X`.S.Z.B.Z.Z.Z.Z.B.Z.Z.Z.Z.Z.S.S.Z.v.h.s.$.O.I F E c m           ",
"        b | e.Q.qXkX7XoX X`.D.D.D.D.A.Z.Z.Z.A.Z.Z.Z.Z.Z.Z.Z.Z.Z.Z.Z.S.Z.C.v.s.$.P K S j h N         ",
"        x ^ e.Q.tXdX7XXXD.Z.B.B.S.Z.Z.Z.Z.Z.Z.Z.A.Z.Z.Z.Z.Z.Z.Z.Z.Z.S.D.D.C.h.$.Y u q 8 g g         ",
"        l M w.^.2XiX>X.XA.B.B.Z.Z.Z.Z.Z.A.Z.S.Z.Z.Z.S.Z.Z.Z.Z.Z.Z.Z.Z.D.D.S.h.#.Y u 0 7 < 1         ",
"        x ( ,.y.=X<X>X'.A.Z.B.Z.Z.Z.Z.Z.S.Z.A.Z.Z.Z.A.Z.Z.Z.Z.S.Z.S.S.S.D.C.h.#.Y t 6 - $ #         ",
"      ` ` } e.T.^.=X&X_.A.Z.Z.Z.A.Z.Z.S.Z.Z.Z.Z.Z.S.Z.Z.S.Z.Z.Z.S.S.S.S.D.Z.h.#.Y r 5 : # o X       ",
"    ] w.r.L.U.~.&X[._.).Z.Z.Z.Z.Z.Z.Z.Z.Z.S.Z.Z.Z.A.A.Z.Z.Z.Z.Z.Z.Z.S.D.D.Z.h.#.P r e 4 > * @ o     ",
"x M ] K.@X1X>X;X{.).).Z.Z.Z.Z.Z.Z.S.A.Z.A.Z.Z.Z.S.Z.Z.Z.Z.S.Z.A.Z.Z.Z.D.D.C.h.$.P a r e e 5 : # . . ",
"l m { P.1XhXaX5X`.A.Z.Z.Z.Z.Z.Z.Z.Z.Z.S.Z.Z.Z.Z.Z.Z.Z.Z.D.Z.Z.S.Z.S.Z.B.Z.v.g.#. .L p p a 6 > # . . ",
"l m { E.rXzXgX6X XZ.B.Z.Z.Z.Z.Z.Z.Z.Z.Z.Z.Z.Z.S.Z.Z.D.Z.Z.Z.Z.Z.Z.Z.B.v.d.s.a.;.-.+...T p e > # . . ",
"l m { P.rXzXgX5X XZ.B.B.Z.Z.B.Z.B.B.Z.Z.Z.Z.Z.Z.Z.S.Z.Z.Z.Z.A.S.S.Z.v.d.#.@.&.;.J.J.;.+.p e > # . . ",
"x m { P.1XfXsX5X`.S.Z.S.A.D.D.D.D.A.D.D.Z.Z.Z.A.Z.Z.Z.Z.Z.Z.Z.S.D.Z.v.a.@. .+.H.~.~.J.+.L 6 > # . . ",
"l M } K.1XuXeX-X'.A.A.)._.'..XXXXXXXXXXX|.`.D.Z.Z.Z.Z.Z.Z.Z.Z.A.).'.].k.p.X.-.J.I.P.t.+.A 0 > @ . . ",
"l M } y.*XiX2X-X).A.).}.&X>X>X7X7XpXpX7X5X.XD.Z.B.B.B.B.B.Z.A.)..X&X&X%X$X/./.G.p.;.&._ E w , @ . . ",
"x m [ y.^.<X=X&X).).'.&X=X2XiXfXlXlXlXlXaX-X|.Z.Z.Z.Z.Z.Z.Z.D._.&X=X=X3XiXqX#XG.X.Q Q W h 8 < O . . ",
"b N ' y.T.=X&X{.).).}.&X=X2X1XrXkXlXlXlXdX7XXX'. X`.|.|.|. X'.{.&X%X*X1XqXqX$Xi. .A D ~ h g < % . . ",
"b m ' q.T.[.{.'.A.A.'.[.&X%X(.+X+X#X1XuXuXeXeX8X5X8X8X8X8X8X8X;XU.J.Y.Y././.i.+.Q S j v b d 2 % . . ",
"b m / 6.N.).).`.A.A.).)._.m.f.-.-.H.@X2XiXuXdXgXgXgXgXgXgXjXaX,XY.-.......X.....W h c m b d < % . . ",
"x m / 5.l.Z.D.Z.Z.D.D.D.Z.x.#.T ..;.P.=X2XuXfXlXzXjXjXjXlXjXkX+Xi.o.p i G H A D c n m B b 8 < % . . ",
"x m / 5.l.Z.S.S.Z.Z.Z.S.B.x.a.$.$.8.R.&X>XwXeXwX0X0X#X#X#X#X+XG.X.U a y a u Z j c m B B b 8 < % . . ",
"x m / 5.l.Z.S.S.S.Z.S.Z.B.v.x.d.g.j.].].oXoX4X,X(.k.i.u.u.i.u.X.U H i a i u Z D x m B m c g 2 % . . ",
"b m / 5.l.C.S.S.Z.Z.Z.Z.S.Z.C.C.M.C.A.).D.D.S.F.j.a.X.U s U U p H G i i i G A D c b B B b d < % . . ",
"x m / 4.l.Z.Z.S.Z.Z.Z.Z.Z.A.Z.D.S.Z.Z.Z.Z.Z.Z.n.d.1.R P J G i i i G i i i G A E c m B B x g < % . . ",
"b m / 5.l.C.D.S.Z.Z.Z.D.Z.D.D.S.D.S.S.Z.Z.Z.Z.n.v.d.a.R T J i a i i G i i p Z E h m m B x 8 < % . . ",
"b m / 5.l.Z.D.S.A.Z.Z.Z.A.Z.Z.Z.Z.Z.Z.Z.Z.S.Z.Z.B.V.n.s.$.Y H a i p i i p p A E c b B B b d < % X . ",
"b m / 5.b.Z.D.S.S.Z.Z.Z.Z.Z.Z.Z.S.Z.A.Z.Z.Z.Z.S.S.Z.B.x.a.T G a i i G G G Z F E c m B m c g < % . . ",
"b m / 5.c.A.D.D.S.A.S.Z.Z.Z.Z.Z.Z.A.Z.Z.Z.Z.Z.Z.D.D.S.b.a.T p a i i G C S F E c v m B V b g < % . . ",
"x m / 5.l.Z.S.S.Z.Z.Z.Z.S.Z.Z.A.Z.Z.S.Z.S.Z.A.S.D.D.Z.b.#.T p a i i G A D h c N N m m V N g < % . . ",
"b m / 5.z.M.Z.Z.Z.Z.S.Z.Z.Z.Z.S.Z.Z.Z.Z.Z.Z.Z.Z.S.D.Z.b.a.R J H p p G F h v n n m b n b k 8 < % . . ",
"b N / >.9.9.l.M.Z.D.S.S.S.S.D.D.S.D.D.Z.A.Z.Z.Z.Z.D.Z.v.d.a.@.T P H Z F ~ m B B m N k g 9 2 - O . . ",
"      / >.>.9.l.M.S.D.D.S.D.D.D.D.D.D.Z.Z.A.S.Z.S.D.S.C.v.x.s.#.O.J Z S ~ m V V B h d 2 1 & %       ",
"        B / 3.9.M.Z.Z.Z.Z.M.C.C.C.Z.Z.S.Z.Z.S.S.Z.Z.Z.C.Z.C.b.a.@.J C S j c n n b k 3 - O X         ",
"        x ^ >.5.z.l.l.l.l.g.g.2.a.f.v.Z.S.D.S.S.S.D.S.S.Z.v.j.#.U t 0 0 w 8 g g d 9 < & X .         ",
"            / >.3.4.5.5.4._ Q s ! O.f.C.D.D.D.S.D.D.D.Z.b.s.$.U t 5 > - , < 1 < 1 1 ; %             ",
"              ( ( ( / ( ^ k 3 > 7 s %.v.S.D.D.Z.D.D.Z.b.s.@.U t > * o o + + + O O + O               ",
"              m m n B B j 9 1 O = t +.j.M.M.M.c.c.b.g.2.O.K t 4 * o . . . . . . . . .               ",
"                  b n n b 3 ; . $ 0 _ 4.9.9.9.5.&.+.! s t 5 > : @ . . . . . . . .                   ",
"                                  f ^ / >.>.>.^ E w 4 > * * @ # o                                   ",
"                                    m m m ( m j 9 , + X . . . .                                     ",
"                                    n b n n n k 3 ; . . . . . .                                     "
};
